<svg width="1324" height="1120" viewBox="0 0 1324 1120" fill="none" xmlns="http://www.w3.org/2000/svg">
<path d="M2.11265 90H628.124H929.673H1262.38C1310.16 90 1322.94 91.2994 1321.95 136.479C1320.95 181.658 1321.53 360.543 1321.95 444.338C1322.19 493.233 1302.84 492.116 1243.76 491.316C1220.03 490.995 1030.16 491.323 848.102 491.32C724.711 491.318 573.472 491.246 436.061 491.32C288.405 491.32 171.442 491.208 51.1338 491.316C5.83619 491.316 1.11983 491.316 2.11265 531.298C3.10548 571.28 2.52633 730.54 2.11265 819C2.11313 857.482 0.996246 894.105 51.1338 894.905C101.271 895.704 958.744 896.333 1320.5 896" stroke="#96BDEA" stroke-width="4" stroke-dasharray="17 16"/>
</svg>
