<svg viewBox="0 0 1327 837" fill="none" xmlns="http://www.w3.org/2000/svg">
    <path d="M2.11291 2H629.547H931.782H1265.24C1313.13 2.00004 1325.94 3.2994 1324.95 48.4787C1323.95 93.6581 1324.53 272.543 1324.95 356.338C1325.19 405.233 1305.79 404.116 1246.58 403.316C1222.8 402.995 1032.5 403.323 850.025 403.32C726.353 403.318 574.771 403.246 437.048 403.32C289.055 403.32 171.828 403.208 51.2455 403.316C5.84491 403.316 1.11783 403.316 2.11291 443.298C3.10799 483.28 2.52753 670.194 2.11291 758.654C2.11339 797.136 0.993965 833.759 51.2455 834.558C101.497 835.358 962.365 834.892 1324.95 834.558" stroke="#96BDEA" stroke-width="4" stroke-dasharray="26 26"/>
</svg>