<svg width="400" height="400" viewBox="0 0 400 400" fill="none" xmlns="http://www.w3.org/2000/svg">
<g clip-path="url(#clip0_220_498)">
<path d="M-81.5988 356.258C-58.4569 366.285 -20.9271 356.173 11.1128 330.159C49.9675 298.612 58.8596 241.07 60.8157 221.301C62.7717 201.532 67.5022 156.002 107.306 135.879C147.109 115.757 184.645 153.179 201.314 167.666C217.983 182.152 265.984 241.171 298.005 230.41C330.026 219.648 310.183 167.255 310.404 133.478C310.626 99.7004 311.6 83.6072 329.071 58.4802C343.048 38.3787 465.465 -54.5426 511.576 -72.2509M-71.7219 371.274C-37.0145 383.893 23.081 349.805 49.0714 309.924C54.7125 302.476 66.9064 277.286 70.5534 236.104C75.1122 184.627 87.7472 166.621 108.852 154.253C129.957 141.886 158.941 137.363 188.924 162.787C218.907 188.21 258.505 226.699 264.037 229.423C269.569 232.147 290.992 255.929 313.316 239.73C335.64 223.53 318.26 156.792 318.407 134.273C318.555 111.755 327.901 84.0953 337.557 71.3808C347.213 58.6662 463.631 -36.1555 520.201 -59.1389M-63.3753 383.963C-42.1618 390.713 -3.06098 375.21 18.5439 362.4C33.8674 353.314 57.3034 333.293 67.9174 306.011C78.5314 278.729 75.7333 232.091 91.7156 196.43C107.698 160.769 142.108 155.708 157.64 157.611C173.172 159.514 195.686 174.19 207.647 183.497C221.753 194.472 282.298 259.116 303.332 256.599C320.352 254.562 336.253 241.003 337.596 221.335C339.403 194.848 327.151 162.357 327.499 152.229C328.026 136.842 328.923 107.359 346.877 85.5502C364.832 63.7415 465.734 -16.222 529.521 -44.9695M-55.585 395.806C-18.3708 410.513 46.4944 377.853 71.5095 326.978C73.9536 321.735 79.4377 306.674 81.8209 288.382C84.7999 265.516 92.7632 195.438 127.026 177.748C154.437 163.596 184.917 174.613 196.731 181.891C207.372 190.142 234.306 212.137 256.917 234.106C285.182 261.569 302.595 281.322 327.276 265.088C351.957 248.853 359.175 235.016 344.454 188.343C329.733 141.67 345.093 111.266 358.956 93.0577C372.818 74.8494 458.473 10.5849 537.033 -33.5493" stroke="#1F87FF" stroke-opacity="0.16" stroke-width="1.5"/>
</g>
<defs>
<clipPath id="clip0_220_498">
<rect width="400" height="400" fill="white"/>
</clipPath>
</defs>
</svg>
