<svg width="1920" height="900" viewBox="0 0 1920 900" fill="none" xmlns="http://www.w3.org/2000/svg">
<g clip-path="url(#clip0_119_238)">
<path d="M574.589 913.462C630.783 933.806 719.93 904.336 794.731 838.008C885.441 757.572 902.418 619.973 905.618 572.862C908.818 525.751 916.728 417.216 1010.57 363.701C1104.41 310.186 1197.15 393.299 1238.17 425.159C1279.19 457.018 1398.62 589.744 1474.52 559.545C1550.42 529.346 1498.95 408.172 1496.94 328.137C1494.93 248.101 1496.05 209.841 1536.02 147.757C1567.99 98.0902 1854.28 -140.004 1963.41 -188.729M599.379 947.573C683.474 972.357 824.879 882.778 884.145 784.496C897.099 766.026 924.417 704.569 930.059 606.493C937.11 483.898 966.026 439.39 1015.66 406.993C1065.28 374.596 1134.38 359.621 1208.12 415.425C1281.86 471.229 1379.62 556.568 1393.07 562.206C1406.53 567.844 1459.64 621.02 1511.9 579.368C1564.16 537.715 1517.51 382.2 1516.17 328.843C1514.83 275.486 1535.14 208.599 1557.32 177.064C1579.5 145.529 1851.26 -96.1837 1985.06 -158.942M620.329 976.399C671.656 989.267 764.162 946.797 814.956 913.277C850.983 889.503 905.622 838.635 928.999 772.456C952.375 706.276 942.166 596.225 977.774 509.41C1013.38 422.596 1095.44 405.546 1132.79 407.768C1170.14 409.991 1225.18 441.44 1254.53 461.723C1289.15 485.642 1439.05 629.847 1489.25 620.79C1529.87 613.462 1566.95 579.01 1568.68 532.228C1571.02 469.226 1539.23 394.073 1539.3 370.035C1539.41 333.513 1539.34 263.549 1580.71 209.253C1622.09 154.958 1857.8 -49.2804 2008.45 -126.753M639.882 1003.3C730.139 1032.66 883.077 945.765 939.18 821.589C944.641 808.81 956.647 772.332 960.981 728.655C966.399 674.059 980.209 506.907 1060.96 459.967C1125.56 422.415 1199.41 444.026 1228.26 459.525C1254.37 477.503 1320.55 525.635 1376.37 574.345C1446.14 635.233 1489.35 679.458 1547.25 637.375C1605.16 595.292 1621.41 561.456 1582.63 453.076C1543.86 344.697 1578.37 270.424 1610.21 225.258C1642.05 180.092 1842.42 15.2805 2027.31 -100.809" stroke="#1F87FF" stroke-opacity="0.16" stroke-width="3"/>
<circle opacity="0.73" cx="1739.21" cy="600.262" r="11" fill="#7BB4FD"/>
<circle opacity="0.73" cx="1226.21" cy="101.262" r="11" fill="#7BB4FD"/>
<circle opacity="0.73" cx="1598.71" cy="57.7617" r="5.5" fill="#7BB4FD"/>
<circle opacity="0.73" cx="1640.71" cy="469.762" r="5.5" fill="#7BB4FD"/>
<circle opacity="0.73" cx="1250.71" cy="323.762" r="5.5" fill="#7BB4FD"/>
<circle opacity="0.73" cx="1055.71" cy="284.762" r="5.5" fill="#7BB4FD"/>
<circle opacity="0.73" cx="1049.71" cy="534.762" r="5.5" fill="#7BB4FD"/>
<circle opacity="0.73" cx="1539.71" cy="723.762" r="5.5" fill="#7BB4FD"/>
<circle opacity="0.73" cx="1678.71" cy="320.762" r="8.5" fill="#7BB4FD"/>
</g>
<defs>
<clipPath id="clip0_119_238">
<rect width="1920" height="900" fill="white"/>
</clipPath>
</defs>
</svg>
